<svg xmlns="http://www.w3.org/2000/svg" fill="none" viewBox="-0.5 -0.5 600 600" id="Add-Products-To-Cart-Or-Basket--Streamline-Bangalore" height="600" width="600">
  <desc>
    Add Products To Cart Or Basket Streamline Illustration: https://streamlinehq.com
  </desc>
  <g id="shopping-Add-products-to-cart-or-basket-01">
    <g id="color 2">
      <path id="Vector" fill="#add8e6" d="M390.946335 172.30235000000002c-6.022945000000001 -5.990898500000001 -14.01061 -9.598975000000001 -22.48646 -10.157243000000001 -8.475850000000001 -0.5585675 -16.86784 1.9710095 -23.62456 7.120313000000001 -6.75672 5.1493035 -11.419935 12.5703145 -13.130080000000001 20.8916225 -1.70715 8.321008500000001 -0.34742 16.9795535 3.8336 24.374807500000003 4.267875 -2.7284450000000002 14.166350000000001 -10.63824 13.654205000000001 -6.8286 -0.5690500000000001 3.8126349999999998 -9.557045 11.494810000000001 -9.557045 11.494810000000001 0.047920000000000004 0.37737000000000004 0.06589 0.757735 0.056905 1.1381000000000001 3.1028200000000004 3.5538670000000003 6.891495000000001 6.4461385 11.138405 8.504302500000001 4.24691 2.0584635000000002 8.862205000000001 3.2405900000000005 13.576335000000002 3.4759970000000004 4.711135 0.235407 9.425265 -0.48069750000000006 13.854870000000002 -2.105485 4.4296050000000005 -1.6247875 8.48783 -4.1250135 11.929085 -7.3518265 3.44425 -3.2265135 6.202645 -7.113724 8.110460000000002 -11.4292195s2.92911 -8.9709235 2.997995 -13.689246500000001c0.07188 -4.7180235 -0.8086500000000001 -9.401904000000002 -2.58768 -13.7725075 -1.77903 -4.370304 -4.42062 -8.33808 -7.7660350000000005 -11.6658245Z" stroke-width="1"></path>
      <path id="Vector_2" fill="#add8e6" d="M310.776175 346.925825c-4.27087 -3.9114700000000004 -9.011955 -7.274855 -14.11244 -10.01528 -28.901750000000003 -15.768675 -58.703198 -29.830200000000005 -89.251 -42.112695 -0.86256 -3.189675 -1.54542 -5.340085 -1.54542 -5.340085l-32.37595 -9.389325s-38.06645 30.099750000000004 -28.790935 57.069725c5.12145 14.975000000000001 25.376635000000004 34.99358 93.71355 50.696365 -6.9876345 35.541665 -15.932202000000002 70.67002000000001 -26.79327 105.22633 2.650575 -5.741415 17.80228 -9.140740000000001 35.727355 -7.131094999999999 19.2878 2.16239 34.310719999999996 9.161705000000001 33.62786 15.70578l0.224625 0.28452500000000003c4.267276000000001 -39.027845000000006 5.7267395 -78.31326 4.36671 -117.55075500000001l58.53428 86.522555c-3.2945 -4.660220000000001 5.504810000000001 -18.050865 19.9467 -30.2495 14.675500000000001 -12.40529 29.587605 -18.835555 33.343334999999996 -14.45387l0.22762 0.11381 -86.84302 -79.376485Z" stroke-width="1"></path>
    </g>
    <g id="color 1">
      <path id="Vector_3" fill="#251e48" d="M531.03147 325.53254c-1.28785 -2.111475 -3.1747 -3.7916700000000003 -5.417955 -4.830935 -2.243255 -1.0392649999999999 -4.74408 -1.38968 -7.188 -1.00632 -2.440925 0.38336000000000003 -4.717125 1.482525 -6.53509 3.15673 -1.817965 1.6772000000000002 -3.099825 3.854565 -3.680855 6.2565550000000005 -0.58103 2.40199 -0.43427499999999997 4.92378 0.41630500000000004 7.244905 0.853575 2.3211250000000003 2.375035 4.339755 4.3727 5.795325 1.9976650000000002 1.45557 4.381685 2.28818 6.8525599999999995 2.3870150000000003 2.470875 0.10183000000000002 4.914795 -0.53311 7.02627 -1.82096 1.4016600000000001 -0.853575 2.6236200000000003 -1.9767000000000001 3.5910050000000004 -3.3004900000000004 0.97038 -1.326785 1.6652200000000001 -2.83327 2.051575 -4.4296050000000005 0.386355 -1.596335 0.45524 -3.2525700000000004 0.19767 -4.872865 -0.25457500000000005 -1.6232900000000001 -0.8296150000000001 -3.177695 -1.6861849999999998 -4.579355Z" stroke-width="1"></path>
      <path id="Vector_4" fill="#251e48" d="M424.91562500000003 395.06146500000006c1.28785 2.111475 3.1747 3.7916700000000003 5.417955 4.830935 2.243255 1.0392649999999999 4.74408 1.38968 7.188 1.00632 2.440925 -0.38336000000000003 4.717125 -1.482525 6.53509 -3.15673 1.817965 -1.6772000000000002 3.099825 -3.854565 3.680855 -6.2565550000000005 0.58103 -2.40199 0.43427499999999997 -4.92378 -0.41630500000000004 -7.244905 -0.853575 -2.3211250000000003 -2.375035 -4.339755 -4.3727 -5.795325 -1.9976650000000002 -1.45557 -4.381685 -2.28818 -6.8525599999999995 -2.3870150000000003 -2.470875 -0.10183000000000002 -4.914795 0.53311 -7.02627 1.82096 -1.4016600000000001 0.853575 -2.6236200000000003 1.9767000000000001 -3.5910050000000004 3.3034850000000002 -0.97038 1.32379 -1.6652200000000001 2.830275 -2.051575 4.42661s-0.45524 3.2525700000000004 -0.19767 4.872865c0.25457500000000005 1.6232900000000001 0.8296150000000001 3.177695 1.6861849999999998 4.579355Z" stroke-width="1"></path>
      <path id="Vector_5" fill="#251e48" d="M503.37863500000003 124.67586c0.9853550000000001 0.9431255000000001 2.225285 1.572974 3.5670450000000002 1.8101780000000003 1.3447550000000001 0.23690450000000002 2.7254500000000004 0.0703825 3.974365 -0.478601 1.24592 -0.5489835 2.3031550000000003 -1.4558695 3.0369300000000004 -2.6059495 0.73078 -1.1497805 1.105155 -2.4909415 1.075205 -3.853966 -0.02995 -1.3627250000000002 -0.464225 -2.6856165 -1.248915 -3.8015535000000003 -0.781695 -1.115937 -1.8778650000000001 -1.974304 -3.1507400000000003 -2.466682 -1.2698800000000001 -0.49267750000000005 -2.65956 -0.5969035 -3.9893400000000003 -0.2997995 -1.32978 0.297104 -2.542755 0.9823600000000001 -3.483185 1.9686135 -1.254905 1.3222925 -1.93477 3.086647 -1.8958350000000002 4.908805 0.04193 1.8224575000000003 0.80266 3.5544660000000006 2.11447 4.818955Z" stroke-width="1"></path>
      <path id="Vector_6" fill="#251e48" d="M83.00642500000001 131.27684c-0.565456 0.883525 -0.8658545000000001 1.910211 -0.8658545000000001 2.95906 0 1.0488490000000001 0.3003985 2.0758345 0.8658545000000001 2.95906 0.5411965 0.6352395000000001 1.2264525 1.1318105 1.9985635000000002 1.4486815000000002 0.772111 0.3165715 1.6086145 0.444458 2.4400265 0.3722785l-4.4385900000000005 -7.73908Z" stroke-width="1"></path>
      <path id="Vector_7" fill="#251e48" d="M109.69187500000001 118.191685c-0.487586 -0.740963 -1.1917105 -1.3133075 -2.016833 -1.6391635 -0.824823 -0.3261555 -1.7302115 -0.38935000000000003 -2.5924720000000003 -0.1817965 1.536435 2.4469149999999997 3.015965 4.950735 4.609305 7.394655 0.46722 -0.8544735 0.7119115 -1.8128734999999998 0.7119115 -2.7868475 0 -0.973974 -0.2446915 -1.932374 -0.7119115 -2.7868475Z" stroke-width="1"></path>
      <path id="Vector_8" fill="#251e48" d="M397.71803000000006 426.24241000000006c-2.50382 -2.95906 -10.01528 -1.081195 -19.12008 4.21097l12.462195 13.02825c6.25955 -7.679180000000001 9.047895 -14.337065 6.657885 -17.23922Z" stroke-width="1"></path>
      <path id="Vector_9" fill="#251e48" d="M353.221315 451.50523499999997c-7.6252699999999995 8.706465 -11.324095000000002 16.50245 -8.646565 19.68913 2.7284450000000002 3.2405900000000005 11.43491 0.68286 21.620905 -5.80431l-12.97434 -13.884820000000001Z" stroke-width="1"></path>
      <path id="Vector_10" fill="#251e48" d="M226.39205 152.49941c-1.8862510000000001 -1.8721745 -4.3634155 -3.031539 -7.0091985 -3.280723 -2.6460825 -0.249184 -5.2960585 0.42768600000000007 -7.498581499999999 1.915003 -4.1998885 -0.9431255000000001 -8.5869645 -0.585822 -12.579 1.0242900000000001 -1.275271 -2.1327395 -3.081855 -3.8982920000000005 -5.2427475 -5.1247445 -2.1611920000000002 -1.2264525 -4.603315 -1.8718750000000002 -7.0882665 -1.873073 -2.4849515 -0.001198 -4.9276735 0.6418285 -7.090063500000001 1.8661845000000001 -2.16239 1.2240565 -3.9704715000000004 2.9881115 -5.2481385000000005 5.1196530000000005 -1.2773675 2.1312420000000003 -1.9805935000000001 4.5574915 -2.0407930000000003 7.0415445000000005 -0.0601995 2.4843525 0.5244245000000001 4.9414505 1.6969670000000001 7.1325925 1.1725425 2.1908425 2.89317 4.040255 4.9935635000000005 5.3679385s4.509272 2.0884135 6.9912285 2.2076145c0.5085510000000001 4.819554 2.657164 9.318643000000002 6.08584 12.743725 0 0 10.81195 13.08815 4.040255 19.686135 2.2717074999999998 -1.7748370000000002 4.1196225 -4.033666 5.40897 -6.6120615 1.289647 -2.5783955 1.9883805 -5.4116655 2.0455850000000004 -8.2940535 0.0518135 -0.565456 -0.046123000000000004 -1.1348055000000001 -0.28452500000000003 -1.6502450000000002 -6.939415 -7.9068000000000005 0.11381 -14.337065 3.1866800000000004 -8.820275 1.47953 2.674535 2.4469149999999997 2.674535 3.129775 1.25191 2.61763 -7.053225 14.56768 -16.67017 17.46684 -4.094165v-0.056905c0.4597325 2.3986955 0.669682 4.838722 0.625955 7.280845 0 -1.41963 0.056905 -5.85822 0.056905 -10.06919 0.46572250000000004 -2.7386280000000003 0.38845150000000006 -5.5422475 -0.22762 -8.251225 1.4930075 -2.2046195 2.16838 -4.8617835000000005 1.909013 -7.5114600000000005 -0.2590675 -2.649976 -1.4367015 -5.1259425 -3.328643 -6.999315000000001Z" stroke-width="1"></path>
      <path id="Vector_11" fill="#251e48" d="M281.18856999999997 501.80626c0.5151399999999999 -4.4385900000000005 -6.25955 -9.047895 -16.61626 -12.279499999999999l-2.16239 20.596615c10.755045 -0.86256 18.2695 -3.93543 18.77865 -8.317115000000001Z" stroke-width="1"></path>
      <path id="Vector_12" fill="#251e48" d="M211.31522 494.010275c-0.5121450000000001 4.609305 6.8885 9.503135 18.092795000000002 12.689815000000001l2.3960000000000004 -21.165665c-11.611615 0.73677 -19.919745 3.866545 -20.488795 8.475850000000001Z" stroke-width="1"></path>
      <path id="Vector_13" fill="#251e48" d="M424.574195 468.69054500000004c-15.499125 5.18734 -31.738015 7.819945000000001 -48.08173 7.787000000000001l7.3976500000000005 7.963705c21.584965 7.640245000000001 44.79921 9.4642 67.31262500000001 5.292165 -8.182340000000002 -7.85289 -17.098454999999998 -14.900125 -26.628545000000003 -21.04287Z" stroke-width="1"></path>
      <path id="Vector_14" fill="#251e48" d="M264.79993 552.90096c-13.455936 -9.92543 -25.782158 -21.297445 -36.757635 -33.912385L226.72150000000002 530.4145c3.4143 9.503135 10.413615 29.189270000000004 36.757635 53.610499999999995 2.914135 -8.30813 2.5158 -20.027565000000003 1.3207950000000002 -31.12404Z" stroke-width="1"></path>
      <path id="Vector_15" fill="#251e48" d="M222.81003 245.473195c-0.646321 4.4053455 -1.6023250000000002 8.760075500000001 -2.860225 13.031245 2.293571 1.6996625 4.713531000000001 3.2214219999999996 7.2389149999999995 4.5524000000000004 -1.36572 -5.8612150000000005 -2.902155 -12.803625000000002 -4.37869 -17.583645Z" stroke-width="1"></path>
      <path id="Vector_16" fill="#251e48" d="M208.41306500000002 201.88995500000001c1.081195 2.84525 2.0965 5.801315000000001 3.07287 9.21861 -0.116805 -2.0997945 0.3986345 -4.1861115 1.47953 -5.99 -1.7278155 -0.743958 -3.2789260000000002 -1.8440215000000002 -4.5524000000000004 -3.22861Z" stroke-width="1"></path>
      <path id="Vector_17" fill="#251e48" d="m238.51281500000002 387.891435 -6.942410000000001 33.858475 13.31577 -32.432855 -6.373360000000001 -1.4256199999999999Z" stroke-width="1"></path>
      <path id="Vector_18" fill="#251e48" d="m160.906375 226.422 4.88784 17.793295 4.4925 -10.353715S161.4305 226.826325 160.906375 226.422Z" stroke-width="1"></path>
      <path id="Vector_19" fill="#251e48" d="m289.72132500000004 101.74614000000001 -28.27879 -7.340745 10.641235 -40.908705000000005 16.613265 -5.8612150000000005 11.665525 13.255870000000002 -10.641235 40.854795Z" stroke-width="1"></path>
    </g>
    <g id="outlines">
      <path id="Vector_20" stroke="#ffffff" stroke-linecap="round" stroke-linejoin="round" d="M423.208475 80.18214c0.39534 1.4858195 0.33843500000000004 3.0551995 -0.15873500000000001 4.5095715 -0.49717000000000006 1.454372 -1.416635 2.7287445000000004 -2.638595 3.6613875 -1.22196 0.9326430000000001 -2.692505 1.481926 -4.225945 1.5786645000000001 -1.5334400000000001 0.096439 -3.063885 -0.26415900000000003 -4.393665 -1.03627 -1.326785 -0.772111 -2.398995 -1.920993 -3.075865 -3.3013885000000003 -0.673875 -1.380695 -0.925455 -2.9306075000000003 -0.721795 -4.4541640000000005s0.8565699999999999 -2.9521715 1.8718750000000002 -4.1052465c1.0183000000000002 -1.153075 2.35407 -1.978497 3.8395900000000003 -2.3723395000000003 1.991675 -0.5238255 4.109140000000001 -0.23720400000000003 5.891165000000001 0.797269 1.782025 1.0347724999999999 3.07886 2.732638 3.61197 4.722516v0Z" stroke-width="1"></path>
      <path id="Vector_21" stroke="#ffffff" stroke-linecap="round" stroke-linejoin="round" d="M447.61772500000006 94.12087c0.39534 1.4858195 0.34143 3.0551995 -0.15873500000000001 4.509871 -0.49717000000000006 1.4546715000000001 -1.41364 2.7293435 -2.6356 3.6622860000000004 -1.22196 0.933242 -2.692505 1.4831239999999999 -4.225945 1.5801619999999998 -1.536435 0.097038 -3.063885 -0.2632605 -4.393665 -1.035072 -1.32978 -0.7718115 -2.398995 -1.9206935 -3.075865 -3.301089 -0.6768700000000001 -1.3803954999999999 -0.92845 -2.9306075000000003 -0.72479 -4.4541640000000005 0.20366000000000004 -1.523856 0.8565699999999999 -2.952471 1.8718750000000002 -4.1058455 1.0183000000000002 -1.153075 2.35407 -1.9790960000000002 3.8395900000000003 -2.3729385 1.991675 -0.5238255 4.109140000000001 -0.2375035 5.891165000000001 0.7963705000000001 1.77903 1.033874 3.07886 2.7311405000000004 3.61197 4.7204195v0Z" stroke-width="1"></path>
      <path id="Vector_22" stroke="#ffffff" stroke-linecap="round" stroke-linejoin="round" d="m415.241775 110.680225 25.262825000000003 -43.41552" stroke-width="1"></path>
      <path id="Vector_23" stroke="#ffffff" stroke-linecap="round" stroke-linejoin="round" d="M531.03147 325.53254c-1.28785 -2.111475 -3.1747 -3.7916700000000003 -5.417955 -4.830935 -2.243255 -1.0392649999999999 -4.74408 -1.38968 -7.188 -1.00632 -2.440925 0.38336000000000003 -4.717125 1.482525 -6.53509 3.15673 -1.817965 1.6772000000000002 -3.099825 3.854565 -3.680855 6.2565550000000005 -0.58103 2.40199 -0.43427499999999997 4.92378 0.41630500000000004 7.244905 0.853575 2.3211250000000003 2.375035 4.339755 4.3727 5.795325 1.9976650000000002 1.45557 4.381685 2.28818 6.8525599999999995 2.3870150000000003 2.470875 0.10183000000000002 4.914795 -0.53311 7.02627 -1.82096 1.4016600000000001 -0.853575 2.6236200000000003 -1.9767000000000001 3.5910050000000004 -3.3004900000000004 0.97038 -1.326785 1.6652200000000001 -2.83327 2.051575 -4.4296050000000005 0.386355 -1.596335 0.45524 -3.2525700000000004 0.19767 -4.872865 -0.25457500000000005 -1.6232900000000001 -0.8296150000000001 -3.177695 -1.6861849999999998 -4.579355Z" stroke-width="1"></path>
      <path id="Vector_24" stroke="#ffffff" stroke-linecap="round" stroke-linejoin="round" d="M424.91562500000003 395.06146500000006c1.28785 2.111475 3.1747 3.7916700000000003 5.417955 4.830935 2.243255 1.0392649999999999 4.74408 1.38968 7.188 1.00632 2.440925 -0.38336000000000003 4.717125 -1.482525 6.53509 -3.15673 1.817965 -1.6772000000000002 3.099825 -3.854565 3.680855 -6.2565550000000005 0.58103 -2.40199 0.43427499999999997 -4.92378 -0.41630500000000004 -7.244905 -0.853575 -2.3211250000000003 -2.375035 -4.339755 -4.3727 -5.795325 -1.9976650000000002 -1.45557 -4.381685 -2.28818 -6.8525599999999995 -2.3870150000000003 -2.470875 -0.10183000000000002 -4.914795 0.53311 -7.02627 1.82096 -1.4016600000000001 0.853575 -2.6236200000000003 1.9767000000000001 -3.5910050000000004 3.3034850000000002 -0.97038 1.32379 -1.6652200000000001 2.830275 -2.051575 4.42661s-0.45524 3.2525700000000004 -0.19767 4.872865c0.25457500000000005 1.6232900000000001 0.8296150000000001 3.177695 1.6861849999999998 4.579355Z" stroke-width="1"></path>
      <path id="Vector_25" stroke="#ffffff" stroke-linecap="round" stroke-linejoin="round" d="m509.92271000000005 339.35746000000006 -63.27237000000001 43.41552" stroke-width="1"></path>
      <path id="Vector_26" stroke="#ffffff" stroke-linecap="round" stroke-linejoin="round" d="m518.5153650000001 319.72823000000005 -35.67644000000001 -177.29801 25.319730000000003 -22.7021" stroke-width="1"></path>
      <path id="Vector_27" stroke="#ffffff" stroke-linecap="round" stroke-linejoin="round" d="m511.74367000000007 285.92965499999997 -125.40664000000001 68.450725 -67.19881500000001 -60.370215 172.12265 -109.64695 20.482805000000003 101.56644Z" stroke-width="1"></path>
      <path id="Vector_28" stroke="#ffffff" stroke-linecap="round" stroke-linejoin="round" d="M503.37863500000003 124.67586c0.9853550000000001 0.9431255000000001 2.225285 1.572974 3.5670450000000002 1.8101780000000003 1.3447550000000001 0.23690450000000002 2.7254500000000004 0.0703825 3.974365 -0.478601 1.24592 -0.5489835 2.3031550000000003 -1.4558695 3.0369300000000004 -2.6059495 0.73078 -1.1497805 1.105155 -2.4909415 1.075205 -3.853966 -0.02995 -1.3627250000000002 -0.464225 -2.6856165 -1.248915 -3.8015535000000003 -0.781695 -1.115937 -1.8778650000000001 -1.974304 -3.1507400000000003 -2.466682 -1.2698800000000001 -0.49267750000000005 -2.65956 -0.5969035 -3.9893400000000003 -0.2997995 -1.32978 0.297104 -2.542755 0.9823600000000001 -3.483185 1.9686135 -1.254905 1.3222925 -1.93477 3.086647 -1.8958350000000002 4.908805 0.04193 1.8224575000000003 0.80266 3.5544660000000006 2.11447 4.818955v0Z" stroke-width="1"></path>
      <path id="Vector_29" stroke="#ffffff" stroke-linecap="round" stroke-linejoin="round" d="M321.69894000000005 247.68650000000002c1.1980000000000002 -0.39534 21.863500000000002 -7.25988 33.181605000000005 -17.122415" stroke-width="1"></path>
      <path id="Vector_30" stroke="#ffffff" stroke-linecap="round" stroke-linejoin="round" d="M348.83963 232.38804000000002c-0.098835 -1.670012 -0.34442500000000004 -3.3283435 -0.727785 -4.9567250000000005" stroke-width="1"></path>
      <path id="Vector_31" stroke="#ffffff" stroke-linecap="round" stroke-linejoin="round" d="M339.68092 220.32417999999998c0.5121450000000001 0.625955 1.063225 1.1980000000000002 1.6502450000000002 1.82096 6.31346 6.2886014999999995 14.777330000000001 9.9466945 23.68446 10.235113 8.90713 0.28871800000000003 17.589635 -2.8138025 24.298434999999998 -8.680708000000001 6.705805 -5.866606000000001 10.937740000000002 -14.060327000000001 11.83624 -22.9258265 0.901495 -8.8654995 -1.596335 -17.7420805 -6.99033 -24.8366365 -5.391 -7.094556 -13.273840000000002 -11.87817 -22.058175000000002 -13.384655000000002 -8.78134 -1.506485 -17.811265000000002 0.376771 -25.256835 5.268804 -7.448565 4.892033 -12.76469 12.428651 -14.870175 21.087196000000002 -2.105485 8.658545 -0.8475849999999999 17.793894 3.52212 25.560528" stroke-width="1"></path>
      <path id="Vector_32" stroke="#ffffff" stroke-linecap="round" stroke-linejoin="round" d="m165.85112 244.61962000000003 4.381685 -10.695145 -9.32643 -7.496485000000001" stroke-width="1"></path>
      <path id="Vector_33" stroke="#ffffff" stroke-linecap="round" stroke-linejoin="round" d="m211.49492 211.36613499999999 -3.2525700000000004 -9.584000000000001c1.519064 1.2069850000000002 3.140557 2.2794945 4.845910000000001 3.2046500000000004" stroke-width="1"></path>
      <path id="Vector_34" stroke="#ffffff" stroke-linecap="round" stroke-linejoin="round" d="M218.200725 221.80371000000002c-9.730755 -0.170715 -19.859845 -7.28384 -28.506410000000002 -15.247545" stroke-width="1"></path>
      <path id="Vector_35" stroke="#ffffff" stroke-linecap="round" stroke-linejoin="round" d="m189.63741 206.556165 -1.93477 14.393970000000001 17.637555000000003 -1.47953 11.665525 12.803625000000002 1.195005 -10.47052" stroke-width="1"></path>
      <path id="Vector_36" stroke="#ffffff" stroke-linecap="round" stroke-linejoin="round" d="M105.08257 116.370725c0.8622605 -0.19976649999999999 1.7649535000000003 -0.1326785 2.588279 0.19257849999999999 0.8233254999999999 0.325257 1.528049 0.893109 2.021026 1.6283815 2.458895 3.4053150000000003 -1.5933400000000002 10.41062 -8.931090000000001 15.645880000000002 -7.337750000000001 5.23526 -15.304450000000001 6.711795 -17.697455 3.2945 -0.5645575 -0.8838244999999999 -0.8646565 -1.9105105000000002 -0.8646565 -2.95906 0 -1.0488490000000001 0.300099 -2.075535 0.8646565 -2.95906" stroke-width="1"></path>
      <path id="Vector_37" stroke="#ffffff" stroke-linecap="round" stroke-linejoin="round" d="M329.2104 233.0709c3.015965 -2.0485800000000003 11.15338 -7.85289 10.413615 -13.941725000000002 0 0 8.985 -7.682175 9.557045 -11.491815 0.572045 -3.8096400000000004 -9.557045 4.207975 -13.777 6.8885 -7.086170000000001 4.554796 -14.45986 8.641773 -22.07914 12.234575" stroke-width="1"></path>
      <path id="Vector_38" stroke="#ffffff" stroke-linecap="round" stroke-linejoin="round" d="m222.81003 245.473195 4.37869 17.583645" stroke-width="1"></path>
      <path id="Vector_39" stroke="#ffffff" stroke-linecap="round" stroke-linejoin="round" d="M227.98539 185.3306c0 -1.422625 0.056905 -5.85822 0.056905 -10.06919 0.46572250000000004 -2.7389275 0.38845150000000006 -5.542547 -0.22762 -8.251225 1.481327 -2.2070155000000002 2.1492120000000003 -4.8605855 1.8892460000000002 -7.5057695 -0.26026550000000004 -2.645184 -1.4319095000000002 -5.117856000000001 -3.3148660000000003 -6.993924 -1.8829565000000001 -1.8763675 -4.3598215 -3.039326 -7.005904 -3.2900075 -2.6460825 -0.250382 -5.2972565 0.4267875 -7.498881 1.9162010000000003 -4.199589 -0.9458210000000001 -8.587863 -0.5885175 -12.579 1.0242900000000001 -1.275271 -2.1327395 -3.081855 -3.8982920000000005 -5.2427475 -5.1247445 -2.1611920000000002 -1.2264525 -4.603315 -1.8718750000000002 -7.0882665 -1.873073 -2.4849515 -0.001198 -4.9276735 0.6418285 -7.090063500000001 1.865885 -2.16239 1.224356 -3.9704715000000004 2.988411 -5.2481385000000005 5.1196530000000005 -1.2773675 2.1315415 -1.9805935000000001 4.5574915 -2.0407930000000003 7.041844 -0.0601995 2.4840530000000003 0.5244245000000001 4.9414505 1.6969670000000001 7.132293000000001 1.1725425 2.1908425 2.89317 4.0405545 4.9935635000000005 5.368238s4.509272 2.088114 6.9912285 2.2076145c0.5082515 4.8198535 2.656565 9.318643000000002 6.08584 12.743725 0 0 11.29714 13.67517 3.56405 20.117415" stroke-width="1"></path>
      <path id="Vector_40" stroke="#ffffff" stroke-linecap="round" stroke-linejoin="round" d="M366.19565500000004 465.3900550000001c-10.183 6.48717 -18.937385000000003 9.035915 -21.680805 5.80431 -5.391 -6.364375 12.707785000000001 -24.558999999999997 20.03056 -30.740679999999998 6.8885 -5.813295 27.826545000000003 -20.55169 33.17262 -14.211275 2.3960000000000004 2.8422549999999998 -0.39833500000000005 9.616945 -6.657885 17.29912" stroke-width="1"></path>
      <path id="Vector_41" stroke="#ffffff" stroke-linecap="round" stroke-linejoin="round" d="M424.574195 468.69054500000004c-15.499125 5.190335 -31.738015 7.819945000000001 -48.08173 7.787000000000001" stroke-width="1"></path>
      <path id="Vector_42" stroke="#ffffff" stroke-linecap="round" stroke-linejoin="round" d="m378.59795 430.510285 14.510775 15.136730000000002c5.90614 6.777685 12.929415 12.492145 20.76733 16.89779 13.690145 7.244905 26.275135 16.403615000000002 37.38359 27.197595 -22.513415000000002 4.172035 -45.72766 2.3480800000000004 -67.31262500000001 -5.292165l-30.725705 -32.945" stroke-width="1"></path>
      <path id="Vector_43" stroke="#ffffff" stroke-linecap="round" stroke-linejoin="round" d="M262.40992 510.111395c10.755045 -0.85058 18.296455 -3.926445 18.77865 -8.305135 0.9554050000000001 -8.724435 -21.495115 -14.121425 -31.240845 -15.427245 -11.725425000000001 -1.5693800000000002 -37.602225 -1.6532400000000003 -38.6355 7.63126 -0.5121450000000001 4.609305 6.8885 9.503135 18.092795000000002 12.689815000000001" stroke-width="1"></path>
      <path id="Vector_44" stroke="#ffffff" stroke-linecap="round" stroke-linejoin="round" d="M228.04229500000002 518.988575c10.9326485 12.65687 23.263662500000002 24.031879999999997 36.757635 33.912385" stroke-width="1"></path>
      <path id="Vector_45" stroke="#ffffff" stroke-linecap="round" stroke-linejoin="round" d="m231.84295 485.69915 -5.12145 44.670425c3.4143 9.50014 10.413615 29.189270000000004 36.757635 53.610499999999995 4.219955000000001 -12.240565 1.3717100000000002 -32.301075000000004 -0.625955 -45.119675 -1.4007615 -8.847230000000001 -1.6301785 -17.838220000000003 -0.68286 -26.74535 0.25756999999999997 -2.37204 -0.14675500000000002 1.5843550000000002 2.381025 -22.513415000000002" stroke-width="1"></path>
      <path id="Vector_46" stroke="#ffffff" stroke-linecap="round" stroke-linejoin="round" d="m230.204685 426.01479 14.56768 -36.86845 -6.42727 -1.43161" stroke-width="1"></path>
      <path id="Vector_47" stroke="#ffffff" stroke-linecap="round" stroke-linejoin="round" d="M211.64167500000002 492.800295c10.962898000000001 -34.47245 19.879612 -69.56187 26.70342 -105.08556500000002 -68.342905 -15.68182 -88.58012000000001 -35.78426 -93.65964 -50.690375 -9.284500000000001 -26.955000000000002 28.790935 -57.069725 28.790935 -57.069725" stroke-width="1"></path>
      <path id="Vector_48" stroke="#ffffff" stroke-linecap="round" stroke-linejoin="round" d="M202.49494500000003 308.859375c25.809712 14.103454999999999 50.199794 30.66281 72.83241000000001 49.44745 2.9905075 2.4049850000000004 5.4350265 5.42095 7.171228 8.844235 1.735902 3.4232850000000004 2.7239525 7.179015 2.897962 11.012615 1.7332065 41.25912 0.345623 82.59311500000001 -4.15107 123.64258500000001" stroke-width="1"></path>
      <path id="Vector_49" stroke="#ffffff" stroke-linecap="round" stroke-linejoin="round" d="M205.85234 289.343955c2.499028 7.846900000000001 4.1771265 15.930405 5.00764 24.124725" stroke-width="1"></path>
      <path id="Vector_50" stroke="#ffffff" stroke-linecap="round" stroke-linejoin="round" d="m343.90986000000004 470.235965 -58.285695 -86.15417" stroke-width="1"></path>
      <path id="Vector_51" stroke="#ffffff" stroke-linecap="round" stroke-linejoin="round" d="M207.33187 294.63612c30.577752 12.33341 60.42292700000001 26.40991 89.38877000000001 42.160615 5.10947 2.7254500000000004 9.85355 6.09183 14.11244 10.01528l86.256 78.82241" stroke-width="1"></path>
      <path id="Vector_52" stroke="#ffffff" stroke-linecap="round" stroke-linejoin="round" d="M109.63497000000001 123.76538s-13.995635 -18.775655 -11.605625 -32.546665000000004c2.4469149999999997 -14.109445000000001 -0.37737000000000004 -14.376 -6.544075 -1.64725 -4.082185 8.42793 -5.46288 28.108075 -5.46288 28.108075" stroke-width="1"></path>
      <path id="Vector_53" stroke="#ffffff" stroke-linecap="round" stroke-linejoin="round" d="M87.45400000000001 139.01592s-12.53707 -21.49811 -19.40161 -36.2395c-5.136425 -11.030585 1.47953 -6.657885 3.357395 -2.95906" stroke-width="1"></path>
      <path id="Vector_54" stroke="#ffffff" stroke-linecap="round" stroke-linejoin="round" d="M81.35618000000001 91.16181c-0.8541740000000001 -4.118724 -1.3115105 -8.309927 -1.36572 -12.516105000000001 0 -12.63291 3.0878449999999997 -12.00995 5.80431 -1.308815 1.2671845 5.029204 2.8060155 9.9862285 4.609305 14.849210000000001" stroke-width="1"></path>
      <path id="Vector_55" stroke="#ffffff" stroke-linecap="round" stroke-linejoin="round" d="M83.68928500000001 89.002415c-5.017823 5.5099015 -7.9909595 12.576005 -8.42194 20.015585" stroke-width="1"></path>
      <path id="Vector_56" stroke="#ffffff" stroke-linecap="round" stroke-linejoin="round" d="M80.4457 85.246685c-1.1381000000000001 -2.61763 -2.273205 -5.6905 -3.357395 -8.985 -3.806645 -11.60862 -6.19965 -9.047895 -4.94774 1.536435 0.9017944999999999 7.377883000000001 2.6969975 14.619194 5.346075 21.564" stroke-width="1"></path>
      <path id="Vector_57" stroke="#ffffff" stroke-linecap="round" stroke-linejoin="round" d="M73.332575 85.474305c-3.9234500000000003 -12.689815000000001 -6.84058 -10.41062 -5.232265000000001 1.1980000000000002 1.231544 7.7579485 3.6488085 15.280490000000002 7.167034999999999 22.303765000000002" stroke-width="1"></path>
      <path id="Vector_58" stroke="#ffffff" stroke-linecap="round" stroke-linejoin="round" d="m148.83952 409.51533500000005 -7.909795 30.6688" stroke-width="1"></path>
      <path id="Vector_59" stroke="#ffffff" stroke-linecap="round" stroke-linejoin="round" d="m160.22052000000002 428.86004 -30.6688 -7.9667" stroke-width="1"></path>
      <path id="Vector_60" stroke="#ffffff" stroke-linecap="round" stroke-linejoin="round" d="m289.72132500000004 101.74614000000001 -28.27879 -7.340745 10.641235 -40.908705000000005 16.613265 -5.8612150000000005 11.665525 13.255870000000002 -10.641235 40.854795Z" stroke-width="1"></path>
      <path id="Vector_61" stroke="#ffffff" stroke-linecap="round" stroke-linejoin="round" d="M289.20918 59.130285c-0.168319 0.641529 -0.5232265 1.2186655 -1.0197975000000001 1.658631 -0.4962715 0.4399655 -1.1120435000000002 0.7226935 -1.7691465000000002 0.812843 -0.6571030000000001 0.0901495 -1.326186 -0.016772 -1.9227900000000002 -0.306688 -0.5963045 -0.2902155 -1.0934745 -0.750547 -1.4283155 -1.3231910000000002 -0.334841 -0.572644 -0.492378 -1.231544 -0.452844 -1.8937385 0.039534 -0.6621945 0.27464150000000004 -1.297434 0.6753725 -1.8260515000000002 0.400731 -0.5286175 0.9491155000000001 -0.9266530000000001 1.575969 -1.143491 0.6268535000000001 -0.21683800000000003 1.3037235 -0.243194 1.945552 -0.075474 0.851179 0.24139700000000003 1.5756695 0.8029595 2.022224 1.5666845 0.44685400000000003 0.7634255000000001 0.5807305 1.6703115 0.373776 2.5304755v0Z" stroke-width="1"></path>
      <path id="Vector_62" stroke="#ffffff" stroke-linecap="round" stroke-linejoin="round" d="M286.50769 54.95825000000001c18.440215000000002 -10.758040000000001 -4.058225 -29.234195 14.48981 -39.98325" stroke-width="1"></path>
      <path id="Vector_63" stroke="#ffffff" stroke-linecap="round" stroke-linejoin="round" d="m373.305785 184.59083500000003 -14.337065 25.205920000000003" stroke-width="1"></path>
      <path id="Vector_64" stroke="#ffffff" stroke-linecap="round" stroke-linejoin="round" d="m378.768665 204.39377500000003 -25.205920000000003 -14.396965000000002" stroke-width="1"></path>
      <path id="Vector_65" stroke="#ffffff" stroke-linecap="round" stroke-linejoin="round" d="M82.75185 136.70378c14.624585 29.144345 43.8468 61.63111 78.16950000000001 89.72421 5.13942 17.606407 9.3381105 35.473978 12.579 53.52664l32.37595 9.389325c5.440118 -9.927826 10.151552500000001 -20.237814 14.097465 -30.848500000000005 8.6855 5.89416 18.151197500000002 10.547491500000001 28.123050000000003 13.824919999999999 4.9117999999999995 1.7601615000000002 10.2617685 1.8799615 15.247545 0.34143 20.1057345 -6.110998 39.73167 -13.69913 58.71997 -22.7021 -1.033275 -9.1110895 -4.53443 -17.767538000000002 -10.126095 -25.035205 -17.0172905 7.818747 -34.917507 13.5508775 -53.31100000000001 17.0715 -15.360157 -5.4967235 -29.954193000000004 -12.9345065 -43.4275 -22.13305 -4.792000000000001 -3.1537349999999997 -4.30082 -9.96137 -2.0965 -14.888145000000002 5.70847 2.7943350000000002 14.477829999999999 3.3424200000000006 14.89713 -19.25186 0.446255 -22.762 -14.402955 -12.156705 -17.877155000000002 -4.06721 -0.7966700000000001 1.859895 -1.614305 2.3960000000000004 -3.345415 -0.7128099999999999 -3.063885 -5.52278 -10.183 0.8985 -3.1866800000000004 8.820275 0.2854235 0.9197645 0.36299400000000004 1.8916420000000003 0.22762 2.84525 -2.3480800000000004 12.366354999999999 -8.592655 19.4675 -18.548035 11.0815 -28.910735000000003 -24.292445000000004 -51.72365 -46.14696 -75.56385 -85.51923" stroke-width="1"></path>
      <path id="Vector_66" stroke="#ffffff" stroke-linecap="round" stroke-linejoin="round" d="M219.949805 258.50444c2.2705095 -5.8273715 3.226813 -12.0839265 2.8003250000000004 -18.323410000000003" stroke-width="1"></path>
    </g>
  </g>
</svg>